<?xml version="1.0" encoding="UTF-8"?>
<svg width="500px" height="500px" viewBox="0 0 500 500" xmlns="http://www.w3.org/2000/svg" xmlns:xlink="http://www.w3.org/1999/xlink" version="1.1">
 <!-- Generated by Pixelmator Pro 1.6 -->
 <g id="group">
  <path id="Pfad" d="M495.35 248.85 C495.35 216.35 454.65 185.55 392.25 166.45 406.65 102.85 400.25 52.25 372.05 36.05 365.55 32.25 357.95 30.45 349.65 30.45 L349.65 52.75 C354.25 52.75 357.95 53.65 361.05 55.35 374.65 63.15 380.55 92.85 375.95 131.05 374.85 140.45 373.05 150.35 370.85 160.45 351.25 155.65 329.85 151.95 307.35 149.55 293.85 131.05 279.85 114.25 265.75 99.55 298.35 69.25 328.95 52.65 349.75 52.65 L349.75 30.35 C322.25 30.35 286.25 49.95 249.85 83.95 213.45 50.15 177.45 30.75 149.95 30.75 L149.95 53.05 C170.65 53.05 201.35 69.55 233.95 99.65 219.95 114.35 205.95 131.05 192.65 149.55 170.05 151.95 148.65 155.65 129.05 160.55 126.75 150.55 125.05 140.85 123.85 131.55 119.15 93.35 124.95 63.65 138.45 55.75 141.45 53.95 145.35 53.15 149.95 53.15 L149.95 30.85 C141.55 30.85 133.95 32.65 127.35 36.45 99.25 52.65 92.95 103.15 107.45 166.55 45.25 185.75 4.75 216.45 4.75 248.85 4.75 281.35 45.45 312.15 107.85 331.25 93.45 394.85 99.85 445.45 128.05 461.65 134.55 465.45 142.15 467.25 150.55 467.25 178.05 467.25 214.05 447.65 250.45 413.65 286.85 447.45 322.85 466.85 350.35 466.85 358.75 466.85 366.35 465.05 372.95 461.25 401.05 445.05 407.35 394.55 392.85 331.15 454.85 312.05 495.35 281.25 495.35 248.85 Z M365.15 182.15 C361.45 195.05 356.85 208.35 351.65 221.65 347.55 213.65 343.25 205.65 338.55 197.65 333.95 189.65 329.05 181.85 324.15 174.25 338.35 176.35 352.05 178.95 365.15 182.15 Z M319.35 288.65 C311.55 302.15 303.55 314.95 295.25 326.85 280.35 328.15 265.25 328.85 250.05 328.85 234.95 328.85 219.85 328.15 205.05 326.95 196.75 315.05 188.65 302.35 180.85 288.95 173.25 275.85 166.35 262.55 160.05 249.15 166.25 235.75 173.25 222.35 180.75 209.25 188.55 195.75 196.55 182.95 204.85 171.05 219.75 169.75 234.85 169.05 250.05 169.05 265.15 169.05 280.25 169.75 295.05 170.95 303.35 182.85 311.45 195.55 319.25 208.95 326.85 222.05 333.75 235.35 340.05 248.75 333.75 262.15 326.85 275.55 319.35 288.65 Z M351.65 275.65 C357.05 289.05 361.65 302.45 365.45 315.45 352.35 318.65 338.55 321.35 324.25 323.45 329.15 315.75 334.05 307.85 338.65 299.75 343.25 291.75 347.55 283.65 351.65 275.65 Z M250.25 382.35 C240.95 372.75 231.65 362.05 222.45 350.35 231.45 350.75 240.65 351.05 249.95 351.05 259.35 351.05 268.65 350.85 277.75 350.35 268.75 362.05 259.45 372.75 250.25 382.35 Z M175.85 323.45 C161.65 321.35 147.95 318.75 134.85 315.55 138.55 302.65 143.15 289.35 148.35 276.05 152.45 284.05 156.75 292.05 161.45 300.05 166.15 308.05 170.95 315.85 175.85 323.45 Z M249.75 115.35 C259.05 124.95 268.35 135.65 277.55 147.35 268.55 146.95 259.35 146.65 250.05 146.65 240.65 146.65 231.35 146.85 222.25 147.35 231.25 135.65 240.55 124.95 249.75 115.35 Z M175.75 174.25 C170.85 181.95 165.95 189.85 161.35 197.95 156.75 205.95 152.45 213.95 148.35 221.95 142.95 208.55 138.35 195.15 134.55 182.15 147.65 179.05 161.45 176.35 175.75 174.25 Z M85.25 299.45 C49.85 284.35 26.95 264.55 26.95 248.85 26.95 233.15 49.85 213.25 85.25 198.25 93.85 194.55 103.25 191.25 112.95 188.15 118.65 207.75 126.15 228.15 135.45 249.05 126.25 269.85 118.85 290.15 113.25 309.65 103.35 306.55 93.95 303.15 85.25 299.45 Z M139.05 442.35 C125.45 434.55 119.55 404.85 124.15 366.65 125.25 357.25 127.05 347.35 129.25 337.25 148.85 342.05 170.25 345.75 192.75 348.15 206.25 366.65 220.25 383.45 234.35 398.15 201.75 428.45 171.15 445.05 150.35 445.05 145.85 444.95 142.05 444.05 139.05 442.35 Z M376.25 366.15 C380.95 404.35 375.15 434.05 361.65 441.95 358.65 443.75 354.75 444.55 350.15 444.55 329.45 444.55 298.75 428.05 266.15 397.95 280.15 383.25 294.15 366.55 307.45 348.05 330.05 345.65 351.45 341.95 371.05 337.05 373.35 347.15 375.15 356.85 376.25 366.15 Z M414.75 299.45 C406.15 303.15 396.75 306.45 387.05 309.55 381.35 289.95 373.85 269.55 364.55 248.65 373.75 227.85 381.15 207.55 386.75 188.05 396.65 191.15 406.05 194.55 414.85 198.25 450.25 213.35 473.15 233.15 473.15 248.85 473.05 264.55 450.15 284.45 414.75 299.45 Z"/>
  <path id="Pfad-1" d="M295.65 248.85 C295.65 274.089 275.189 294.55 249.95 294.55 224.71 294.55 204.25 274.089 204.25 248.85 204.25 223.61 224.71 203.15 249.95 203.15 275.189 203.15 295.65 223.61 295.65 248.85 Z"/>
 </g>
</svg>
